<svg xml:space="preserve" data-sanitized-enable-background="new 0 0 577 435" viewBox="0 0 577 435" width="100%" y="0px" x="0px" xmlns:xlink="http://www.w3.org/1999/xlink" xmlns="http://www.w3.org/2000/svg" id="Layer_1" version="1.1">
<path d="M394.000000,436.000000 
	C262.666687,436.000000 131.833389,436.000000 1.000070,436.000000 
	C1.000047,291.000061 1.000047,146.000137 1.000023,1.000148 
	C193.333237,1.000099 385.666473,1.000099 577.999756,1.000049 
	C577.999878,145.999863 577.999878,290.999725 577.999939,435.999786 
	C516.833313,436.000000 455.666656,436.000000 394.000000,436.000000 
M101.514793,91.014610 
	C97.292877,92.560211 92.996399,93.929932 88.862320,95.682709 
	C73.305580,102.278519 58.179893,109.594307 46.635490,122.519051 
	C33.915897,136.759506 33.165371,152.958038 46.186966,166.919937 
	C53.102287,174.334625 61.589249,180.764328 70.404289,185.834961 
	C95.427032,200.228699 123.163124,207.015976 151.331894,211.817383 
	C203.290604,220.673798 255.429855,221.201569 307.637360,213.960037 
	C335.281677,210.125595 362.401886,204.110931 388.141632,193.057007 
	C403.215240,186.583649 417.582703,178.824936 428.113770,165.624207 
	C438.162872,153.027573 438.404388,139.020050 428.850677,126.107155 
	C421.957733,116.790527 412.763489,110.274841 402.799591,104.707428 
	C382.662109,93.455444 360.809692,86.968208 338.477692,81.996490 
	C300.539764,73.550453 262.064362,70.872047 223.273880,71.792923 
	C182.092072,72.770546 141.592926,78.021202 101.514793,91.014610 
M139.956619,346.510193 
	C215.017822,361.627045 289.412903,359.874146 363.906799,338.518433 
	C351.656616,317.983276 346.399475,296.802216 348.354156,274.081299 
	C350.321686,251.211151 359.241638,231.130661 374.838745,213.080276 
	C372.977448,213.268326 372.188965,213.265472 371.439850,213.435776 
	C354.079254,217.382874 336.876068,222.290817 319.338196,225.140930 
	C257.746399,235.150375 196.217285,234.408112 134.950577,222.006546 
	C106.545189,216.256744 79.182632,207.506088 53.911781,193.040970 
	C47.642231,189.452271 41.801579,185.114273 35.118206,180.693695 
	C35.118206,182.961197 35.118183,184.555954 35.118206,186.150726 
	C35.118591,214.648849 35.104664,243.146973 35.139576,271.645050 
	C35.143440,274.797455 35.107723,278.003815 35.634239,281.092438 
	C38.072186,295.393799 47.195225,305.247314 58.273758,313.408997 
	C82.409691,331.190216 110.410591,339.701477 139.956619,346.510193 
M544.623596,257.034790 
	C530.207642,210.037811 488.284332,182.427902 439.572205,187.849915 
	C385.923889,193.821381 347.264191,247.289352 357.417877,300.571564 
	C365.176300,341.284485 400.095856,374.392029 440.886658,378.334778 
	C477.320679,381.856354 506.924835,369.075623 529.006653,340.114014 
	C547.751953,315.528534 551.958069,287.638306 544.623596,257.034790 
z" stroke="none" opacity="1.000000" fill="#FEFEFE"></path>
<path d="M101.884476,90.873444 
	C141.592926,78.021202 182.092072,72.770546 223.273880,71.792923 
	C262.064362,70.872047 300.539764,73.550453 338.477692,81.996490 
	C360.809692,86.968208 382.662109,93.455444 402.799591,104.707428 
	C412.763489,110.274841 421.957733,116.790527 428.850677,126.107155 
	C438.404388,139.020050 438.162872,153.027573 428.113770,165.624207 
	C417.582703,178.824936 403.215240,186.583649 388.141632,193.057007 
	C362.401886,204.110931 335.281677,210.125595 307.637360,213.960037 
	C255.429855,221.201569 203.290604,220.673798 151.331894,211.817383 
	C123.163124,207.015976 95.427032,200.228699 70.404289,185.834961 
	C61.589249,180.764328 53.102287,174.334625 46.186966,166.919937 
	C33.165371,152.958038 33.915897,136.759506 46.635490,122.519051 
	C58.179893,109.594307 73.305580,102.278519 88.862320,95.682709 
	C92.996399,93.929932 97.292877,92.560211 101.884476,90.873444 
z" stroke="none" opacity="1.000000" fill="#2D2D2D"></path>
<path d="M139.546844,346.418213 
	C110.410591,339.701477 82.409691,331.190216 58.273758,313.408997 
	C47.195225,305.247314 38.072186,295.393799 35.634239,281.092438 
	C35.107723,278.003815 35.143440,274.797455 35.139576,271.645050 
	C35.104664,243.146973 35.118591,214.648849 35.118206,186.150726 
	C35.118183,184.555954 35.118206,182.961197 35.118206,180.693695 
	C41.801579,185.114273 47.642231,189.452271 53.911781,193.040970 
	C79.182632,207.506088 106.545189,216.256744 134.950577,222.006546 
	C196.217285,234.408112 257.746399,235.150375 319.338196,225.140930 
	C336.876068,222.290817 354.079254,217.382874 371.439850,213.435776 
	C372.188965,213.265472 372.977448,213.268326 374.838745,213.080276 
	C359.241638,231.130661 350.321686,251.211151 348.354156,274.081299 
	C346.399475,296.802216 351.656616,317.983276 363.906799,338.518433 
	C289.412903,359.874146 215.017822,361.627045 139.546844,346.418213 
z" stroke="none" opacity="1.000000" fill="#2D2D2D"></path>
<path d="M544.740967,257.427185 
	C551.958069,287.638306 547.751953,315.528534 529.006653,340.114014 
	C506.924835,369.075623 477.320679,381.856354 440.886658,378.334778 
	C400.095856,374.392029 365.176300,341.284485 357.417877,300.571564 
	C347.264191,247.289352 385.923889,193.821381 439.572205,187.849915 
	C488.284332,182.427902 530.207642,210.037811 544.740967,257.427185 
M500.334534,323.560608 
	C500.867828,320.802917 501.847748,318.047821 501.863708,315.287140 
	C501.989929,293.481934 502.093903,271.673981 501.869293,249.870346 
	C501.739197,237.236984 494.146423,230.585602 480.817749,230.660324 
	C467.702637,230.733856 460.262177,237.292908 460.132263,249.710388 
	C459.902344,271.680359 459.953491,293.655304 460.118958,315.626434 
	C460.193878,325.577667 465.287292,332.016479 473.850311,333.962341 
	C486.080414,336.741577 495.261810,333.346191 500.334534,323.560608 
M402.652679,319.296875 
	C402.652679,323.746307 402.652679,328.195740 402.652679,332.867493 
	C416.609863,332.867493 430.346100,332.867493 444.303680,332.867493 
	C444.303680,328.144348 444.303680,323.581665 444.303680,318.565430 
	C439.808990,318.565430 435.564240,318.565430 430.840576,318.565430 
	C430.840576,289.582855 430.840576,261.050812 430.840576,232.526566 
	C421.148285,232.526566 411.954254,232.526566 402.738800,232.526566 
	C402.738800,237.481903 402.738800,242.067780 402.738800,247.046967 
	C407.303986,247.046967 411.560516,247.046967 415.873688,247.046967 
	C415.873688,271.013947 415.873688,294.581085 415.873688,318.709564 
	C411.548065,318.709564 407.432220,318.709564 402.652679,319.296875 
z" stroke="none" opacity="1.000000" fill="#010101"></path>
<path d="M500.181763,323.920959 
	C495.261810,333.346191 486.080414,336.741577 473.850311,333.962341 
	C465.287292,332.016479 460.193878,325.577667 460.118958,315.626434 
	C459.953491,293.655304 459.902344,271.680359 460.132263,249.710388 
	C460.262177,237.292908 467.702637,230.733856 480.817749,230.660324 
	C494.146423,230.585602 501.739197,237.236984 501.869293,249.870346 
	C502.093903,271.673981 501.989929,293.481934 501.863708,315.287140 
	C501.847748,318.047821 500.867828,320.802917 500.181763,323.920959 
M487.125671,277.500031 
	C487.125366,269.358215 487.159210,261.216248 487.112946,253.074692 
	C487.081238,247.494186 485.311371,245.295685 481.024506,245.276550 
	C476.699463,245.257248 474.895355,247.443909 474.887024,253.001846 
	C474.857361,272.774750 474.857239,292.547760 474.885834,312.320648 
	C474.894012,317.969757 476.592621,320.058044 480.947205,320.069366 
	C485.335510,320.080780 487.088928,317.978058 487.110443,312.396484 
	C487.154022,301.097839 487.124847,289.798889 487.125671,277.500031 
z" stroke="none" opacity="1.000000" fill="#FAFAFA"></path>
<path d="M402.984528,319.003235 
	C407.432220,318.709564 411.548065,318.709564 415.873688,318.709564 
	C415.873688,294.581085 415.873688,271.013947 415.873688,247.046967 
	C411.560516,247.046967 407.303986,247.046967 402.738800,247.046967 
	C402.738800,242.067780 402.738800,237.481903 402.738800,232.526566 
	C411.954254,232.526566 421.148285,232.526566 430.840576,232.526566 
	C430.840576,261.050812 430.840576,289.582855 430.840576,318.565430 
	C435.564240,318.565430 439.808990,318.565430 444.303680,318.565430 
	C444.303680,323.581665 444.303680,328.144348 444.303680,332.867493 
	C430.346100,332.867493 416.609863,332.867493 402.652679,332.867493 
	C402.652679,328.195740 402.652679,323.746307 402.984528,319.003235 
z" stroke="none" opacity="1.000000" fill="#F9F9F9"></path>
<path d="M487.125671,278.000061 
	C487.124847,289.798889 487.154022,301.097839 487.110443,312.396484 
	C487.088928,317.978058 485.335510,320.080780 480.947205,320.069366 
	C476.592621,320.058044 474.894012,317.969757 474.885834,312.320648 
	C474.857239,292.547760 474.857361,272.774750 474.887024,253.001846 
	C474.895355,247.443909 476.699463,245.257248 481.024506,245.276550 
	C485.311371,245.295685 487.081238,247.494186 487.112946,253.074692 
	C487.159210,261.216248 487.125366,269.358215 487.125671,278.000061 
z" stroke="none" opacity="1.000000" fill="#010101"></path>
</svg>